<?xml version="1.0" encoding="UTF-8" standalone="no"?>
<svg
   xmlns:dc="http://purl.org/dc/elements/1.1/"
   xmlns:cc="http://creativecommons.org/ns#"
   xmlns:rdf="http://www.w3.org/1999/02/22-rdf-syntax-ns#"
   xmlns:svg="http://www.w3.org/2000/svg"
   xmlns="http://www.w3.org/2000/svg"
   id="svg4515"
   version="1.1"
   viewBox="0 0 94.517939 19.270336"
   height="19.270336mm"
   width="94.517937mm">
  <title
     id="title4556">SmoothieAq logo</title>
  <defs
     id="defs4509" />
  <metadata
     id="metadata4512">
    <rdf:RDF>
      <cc:Work
         rdf:about="">
        <dc:format>image/svg+xml</dc:format>
        <dc:type
           rdf:resource="http://purl.org/dc/dcmitype/StillImage" />
        <dc:title>SmoothieAq logo</dc:title>
        <dc:creator>
          <cc:Agent>
            <dc:title>Jesper L</dc:title>
          </cc:Agent>
        </dc:creator>
        <dc:contributor>
          <cc:Agent>
            <dc:title>The font used for the text in the logo is &quot;Gloria Hallelujah&quot; with some small adjustments. Thanks to Kimberly Geswein, https://fonts.google.com/specimen/Gloria+Hallelujah?selection.family=Gloria+Hallelujah
The glass and straw it taken from the 26698 &quot;Smoothie&quot; icon from The Noun Project. Thanks to Jaclyne Ooi, https://thenounproject.com/search/?q=smoothie&amp;i=26698
The raspberry PCB icon is of course inspired by the Raspberry Pi logo at https://raspberrypi.stackexchange.com/, but is made specially for SmoothieAq.</dc:title>
          </cc:Agent>
        </dc:contributor>
        <dc:rights>
          <cc:Agent>
            <dc:title>(c) 2018 all rights reserved - may be used for non-commercial use when reffering to SmoothieAq components, software, site or documentation</dc:title>
          </cc:Agent>
        </dc:rights>
        <cc:license
           rdf:resource="http://creativecommons.org/licenses/by-nc-nd/4.0/" />
      </cc:Work>
      <cc:License
         rdf:about="http://creativecommons.org/licenses/by-nc-nd/4.0/">
        <cc:permits
           rdf:resource="http://creativecommons.org/ns#Reproduction" />
        <cc:permits
           rdf:resource="http://creativecommons.org/ns#Distribution" />
        <cc:requires
           rdf:resource="http://creativecommons.org/ns#Notice" />
        <cc:requires
           rdf:resource="http://creativecommons.org/ns#Attribution" />
        <cc:prohibits
           rdf:resource="http://creativecommons.org/ns#CommercialUse" />
      </cc:License>
    </rdf:RDF>
  </metadata>
  <g
     transform="translate(-20.614765,-11.363901)"
     id="layer1">
    <g
       class="SmoothieAqText"
       id="text4493"
       style="font-style:normal;font-weight:normal;font-size:10.58333302px;line-height:1.25;font-family:sans-serif;letter-spacing:0px;word-spacing:0px;fill:#000000;fill-opacity:1;stroke:none;stroke-width:0.26458332"
       aria-label="SmoothieAq                          ">
      <g
         id="g4534">
        <path
           id="path4503"
           d="m 23.217749,26.169123 c 0.212956,-0.824219 1.153539,-1.103753 1.835051,-1.437789 0.779942,-0.358798 1.784034,-0.605523 2.19571,-1.434559 0.321002,-0.90205 -0.420158,-1.750573 -1.223009,-2.057368 -1.572579,-0.700284 -3.496231,-0.723378 -4.797295,-1.960475 -0.962577,-0.947505 -0.697426,-2.564842 0.139957,-3.504308 1.064973,-1.312498 2.741592,-2.134794 4.433407,-2.145649 0.448573,0.317295 1.441387,0.350993 1.498617,0.960502 -0.320061,0.423097 -1.363557,0.250569 -1.929254,0.538115 -1.19711,0.378043 -2.65648,0.814339 -3.182407,2.079977 -0.362806,1.00103 0.452345,1.909875 1.364043,2.200554 1.600741,0.718867 3.516571,0.699231 4.923526,1.833437 0.866411,0.652861 0.798325,1.959128 0.153953,2.739927 -1.042177,1.390001 -2.558986,2.472256 -4.245273,2.915413 -0.502007,0.128694 -1.467937,0.03688 -1.167026,-0.727777 z"
           style="font-size:17.63888931px" />
        <path
           id="path4505"
           d="m 29.470597,19.675118 c -0.112896,-0.599717 0.409042,-1.079494 0.99841,-0.89573 0.368636,0.03673 0.212702,0.722591 0.366709,1.013612 0.278624,1.2004 0.534457,2.432045 1.103507,3.534991 0.273407,0.603798 0.621471,-0.550203 0.691173,-0.853738 0.249897,-0.77842 0.06219,-1.730422 0.658335,-2.370118 0.498813,-0.50077 1.230209,-0.236027 1.841983,-0.212627 1.0455,0.117188 1.633214,1.102239 2.171285,1.89238 0.258971,0.29158 0.747045,1.038129 0.879307,0.304945 0.491722,-1.024705 1.124533,-2.037806 2.046871,-2.726201 0.673353,-0.527139 1.642481,-0.162703 2.151839,0.422294 1.086681,1.192874 1.437785,2.83955 1.706601,4.382874 0.07441,0.671194 0.213202,1.352512 0.154825,2.027157 -0.186425,0.44913 -0.772928,0.444015 -1.18425,0.404799 -0.371376,0.03781 -0.304138,-0.354335 -0.386128,-0.597097 -0.334943,-1.54074 -0.669886,-3.081479 -1.004829,-4.622219 -0.22011,-0.579438 -0.959483,-0.468348 -1.282764,-0.04495 -0.992181,1.115067 -1.388021,2.597328 -1.866273,3.976662 0.0014,0.726199 -0.975488,0.692765 -1.382076,0.313551 -0.91463,-1.10014 -0.607355,-2.705306 -1.426754,-3.850702 -0.36299,-0.626996 -1.306344,-0.516852 -1.349509,0.263227 -0.433321,1.459733 -0.662212,2.977107 -0.788602,4.49262 -0.450609,0.516223 -1.240246,0.449072 -1.670872,-0.05168 C 30.897643,25.432685 30.454391,24.001637 30.038836,22.647717 29.781504,21.6739 29.50598,20.687431 29.470597,19.675111 Z"
           style="font-size:17.63888931px" />
        <path
           id="path4507"
           d="m 45.043631,23.413048 c -0.02112,-1.625022 1.008761,-3.106142 2.343944,-3.956948 1.061571,-0.688918 2.335276,-1.096703 3.606921,-1.025118 0.802968,0.112533 1.351087,0.825664 1.704716,1.498481 0.441542,0.898926 0.679498,1.949796 0.410249,2.936676 -0.425904,1.585503 -1.649065,2.886333 -3.109938,3.592656 -1.029754,0.512323 -2.296162,0.68323 -3.371148,0.209868 -0.939142,-0.442966 -1.435695,-1.470581 -1.535691,-2.463513 -0.03346,-0.262611 -0.04906,-0.527401 -0.04905,-0.792102 z m 1.464166,0.172254 c -0.01059,0.593593 0.0857,1.295178 0.64999,1.621887 0.655683,0.365125 1.491623,0.286545 2.153454,-0.0253 1.161363,-0.597233 2.110181,-1.696267 2.389497,-2.987005 0.09511,-0.648783 0.03717,-1.36836 -0.326747,-1.929791 -0.273945,-0.436874 -0.86411,-0.48723 -1.29945,-0.284222 -0.504202,0.231564 -1.048699,0.393963 -1.479482,0.759154 -0.554308,0.383295 -1.053717,0.850406 -1.483815,1.367873 -0.207737,0.35747 -0.326404,0.758209 -0.522708,1.12213 -0.0441,0.113269 -0.08,0.232695 -0.08074,0.355275 z"
           style="font-size:17.63888931px" />
        <path
           id="path4509"
           d="m 53.515712,23.969253 c -0.15949,-1.617314 0.74045,-3.180794 1.998291,-4.142263 0.999016,-0.776858 2.233346,-1.291679 3.506466,-1.328698 0.809636,0.04371 1.41652,0.707552 1.826188,1.347793 0.528465,0.874596 0.853277,1.926865 0.649024,2.950731 -0.34398,1.758973 -1.635506,3.249605 -3.22812,4.024889 -0.911517,0.429981 -2.010188,0.597954 -2.968591,0.225144 -1.024749,-0.415392 -1.565205,-1.507276 -1.716132,-2.548478 -0.02982,-0.175323 -0.05198,-0.35193 -0.06713,-0.529118 z m 1.473518,0.04688 c 0.03977,0.592603 0.195836,1.283063 0.785811,1.560611 0.684405,0.307942 1.510612,0.158411 2.143468,-0.208683 1.106256,-0.694011 1.957986,-1.869887 2.126318,-3.179729 0.03949,-0.654528 -0.07955,-1.366551 -0.489979,-1.894936 -0.310168,-0.411948 -0.902478,-0.411833 -1.318938,-0.172474 -1.160483,0.640158 -2.059795,1.665879 -2.80254,2.745915 -0.214722,0.347981 -0.451939,0.72551 -0.44414,1.149296 z"
           style="font-size:17.63888931px" />
        <path
           id="path4511"
           d="m 60.714853,18.228178 c 0.05629,-0.379934 0.431577,-0.612835 0.799128,-0.533995 1.025535,0 2.051069,0 3.076604,0 -0.086,-1.239915 -0.389728,-2.535655 0.04306,-3.744388 0.09156,-0.591412 1.384934,-1.269132 1.151382,-0.276281 0.0477,1.349951 0.144228,2.801105 0.924691,3.952373 0.63117,0.905345 1.893027,0.947727 2.8671,0.686798 0.580277,-0.09451 1.356247,-0.494289 1.844203,0.0051 0.32897,0.580983 -0.113628,1.274656 -0.778915,1.230278 -1.231906,0.155637 -2.471665,0.282979 -3.712545,0.333742 -0.527087,-0.104106 -0.228321,0.717975 -0.282823,1.038776 0.197978,1.56654 1.100333,2.932181 1.433214,4.463889 0.04588,0.496981 0.270642,1.262325 -0.28543,1.542555 -0.636141,0.08846 -1.260815,-0.39609 -1.48886,-0.978348 C 65.48838,24.136138 65.971759,22.04 65.227923,20.209111 65.04225,19.647947 64.448202,19.518467 63.939956,19.420405 62.975437,19.19069 61.999465,18.997699 61.042132,18.744945 60.879942,18.616818 60.714134,18.449536 60.714853,18.228178 Z"
           style="font-size:17.63888931px" />
        <path
           id="path4513"
           d="m 72.686561,15.713258 c 0.0099,-0.577826 0.140571,-1.274495 0.680405,-1.58905 0.566461,-0.26198 0.515038,0.496384 0.620156,0.85197 0.375663,2.095907 0.06173,4.236719 -0.341581,6.303062 -0.120548,0.847235 -0.305162,1.711384 -0.19675,2.568749 0.03965,0.259788 0.210883,0.69025 0.12058,0.176561 -0.107681,-1.130442 0.220593,-2.473831 1.287263,-3.05483 0.835533,-0.43994 1.845844,-0.463894 2.752644,-0.267265 1.10642,0.268183 1.905859,1.258982 2.136498,2.346164 0.222265,0.86127 0.177459,1.767521 0.09394,2.643842 -0.06731,0.599568 -0.501247,1.230621 -1.162989,1.21332 -0.31375,-0.16405 -0.006,-0.895717 -0.07119,-1.295612 -0.0018,-0.95071 0.104649,-1.988878 -0.415698,-2.836081 -0.302674,-0.529506 -0.924712,-0.782728 -1.515573,-0.696017 -0.888693,-0.02567 -1.74348,0.583756 -1.976085,1.448016 -0.303324,0.976613 -0.183289,2.01775 0.0038,3.004769 -0.158892,0.526116 -0.846486,0.464154 -1.261766,0.318675 -0.703148,-0.32267 -0.916979,-1.164358 -1.068249,-1.854969 -0.274321,-1.570725 -0.170992,-3.177453 -0.07618,-4.760574 0.104543,-1.451851 0.277718,-2.898046 0.387795,-4.348945 l 0.0017,-0.05955 0.0013,-0.112235 z"
           style="font-size:17.63888931px" />
        <path
           id="path4515"
           d="m 81.316529,20.450264 c -5.33e-4,-0.55734 0.0335,-1.113997 0.05168,-1.670871 0.228174,-0.34758 0.792119,-0.697504 1.105846,-0.665216 0.120287,1.759519 0.6976,3.441479 1.07957,5.152975 0.218825,1.038369 0.506088,2.096692 0.405,3.1654 -0.12727,0.590681 -0.940841,0.638218 -1.354421,0.324458 -0.713717,-0.610705 -0.880017,-1.601525 -1.048399,-2.476701 -0.219607,-1.264073 -0.246338,-2.550109 -0.239276,-3.830045 z m 0.241156,-6.459554 c 0.416838,0.184905 0.90557,0.697113 0.679328,1.177792 -0.387489,0.379085 -0.974857,0.135349 -1.419754,0.01144 -0.262729,-0.28861 0.03996,-1.109617 0.517572,-1.167699 0.0732,-0.01539 0.14813,-0.02151 0.222854,-0.02153 z"
           style="font-size:17.63888931px" />
        <path
           id="path4517"
           d="m 84.658267,22.121136 c 0.01894,-1.433666 0.338851,-2.967764 1.343587,-4.047988 0.65326,-0.715455 1.596937,-1.139351 2.566243,-1.150019 1.087956,-0.105906 2.234505,0.547763 2.577177,1.608648 0.450712,1.157084 0.150015,2.479076 -0.538027,3.476586 -0.788359,1.167289 -2.131495,2.065048 -3.577819,2.014641 -0.300334,-0.03353 -0.664635,-0.139407 -0.456713,0.289266 0.196848,0.642651 0.911539,0.899198 1.50481,1.038643 0.883889,0.169366 1.809885,0.157642 2.678562,-0.0907 0.669319,-0.158851 1.382881,-0.359301 2.06598,-0.173056 0.542472,0.159588 0.458588,0.957195 0.0097,1.182101 -0.815228,0.537178 -1.824333,0.60068 -2.770072,0.655644 -1.16355,0.08006 -2.397759,-0.03967 -3.397725,-0.691101 -1.21372,-0.733205 -1.894818,-2.129876 -1.981166,-3.51721 -0.01673,-0.198011 -0.02452,-0.396748 -0.02453,-0.595453 z m 1.825901,-1.119656 c 0.0036,0.418095 0.01881,1.043592 0.552022,1.11535 1.130828,0.216981 2.390198,-0.478579 2.760652,-1.577209 0.139606,-0.518491 0.105755,-1.108863 -0.143189,-1.587973 -0.239453,-0.464265 -0.805716,-0.622555 -1.288412,-0.500077 -1.155438,0.224925 -1.885269,1.428489 -1.881073,2.549909 z"
           style="font-size:17.63888931px" />
        <path
           id="path4519"
           d="m 98.519954,11.785849 c 0.300223,-0.765786 1.359096,-0.3577 1.698926,0.186583 1.20387,1.394346 1.89172,3.134978 2.63462,4.799382 1.01933,2.455463 1.96737,4.953715 2.59795,7.539981 0.29612,0.59837 0.0535,1.933832 -0.83368,1.409462 -0.58854,-0.757097 -0.81702,-1.723459 -1.20794,-2.587052 -0.28431,-0.709401 -0.55901,-1.42271 -0.8419,-2.132729 -1.69365,-0.269711 -3.389315,-0.554841 -5.093387,-0.740696 -0.250032,0.325933 -0.251041,0.968217 -0.412161,1.41328 -0.448623,1.718938 -0.860671,3.466456 -1.595173,5.090616 -0.106744,0.536049 -0.688141,0.589002 -0.661499,-0.01958 -0.185475,-1.68852 0.08685,-3.389014 0.341233,-5.057545 0.525784,-3.053132 1.182473,-6.151777 2.683256,-8.89341 0.204279,-0.352618 0.430907,-0.693207 0.689755,-1.008292 z m -0.413412,6.063368 c -0.0765,0.927781 0.936773,1.340086 1.70855,1.362967 0.680438,0.07313 1.364478,0.0047 2.046598,0.01507 -0.062,-1.8943 -1.01815,-3.599104 -1.85477,-5.249936 -0.182539,-0.328414 -0.399207,-1.049511 -0.634841,-0.36261 -0.553711,1.204185 -0.956664,2.485463 -1.235391,3.778034 -0.0085,0.152263 -0.0264,0.303951 -0.03015,0.45647 z"
           style="font-size:17.63888931px" />
        <path
           id="path4521"
           d="m 112.02594,24.670507 c -1.06954,0.01134 -1.93748,0.902038 -3.02926,0.788604 -1.19131,-0.0018 -2.34316,-0.737654 -2.79887,-1.846087 -0.46693,-1.158362 -0.41461,-2.625929 0.4342,-3.599923 0.85157,-1.001652 2.25366,-1.228812 3.49913,-1.250933 1.29387,0.03462 2.26877,1.061057 2.91265,2.089464 1.06416,1.709708 1.58293,3.696863 1.90941,5.666307 0.15929,1.221858 0.29969,2.485606 0.0183,3.699171 -0.0977,0.816892 -1.11766,0.270624 -1.24105,-0.25246 -0.53165,-1.158586 -0.30756,-2.46678 -0.44053,-3.697557 -0.0643,-0.556196 -0.0245,-1.236797 -0.49524,-1.627538 -0.22978,-0.168709 -0.53464,-0.07649 -0.76874,0.03095 z m -4.65088,-2.377116 c 0.0277,0.78471 0.70352,1.451228 1.43402,1.64907 0.80573,0.07563 1.60587,-0.267536 2.2593,-0.717011 0.50365,-0.303912 0.83883,-0.858575 0.7269,-1.455216 -0.0348,-0.621522 -0.078,-1.432859 -0.72347,-1.735265 -1.33844,-0.544642 -2.88222,0.311185 -3.5148,1.525397 -0.11661,0.225706 -0.18289,0.478415 -0.18195,0.733025 z"
           style="font-size:17.63888931px" />
      </g>
    </g>
  </g>
</svg>
