<?xml version="1.0" encoding="UTF-8" standalone="no"?>
<!-- Created with Inkscape (http://www.inkscape.org/) -->

<svg
   xmlns:dc="http://purl.org/dc/elements/1.1/"
   xmlns:cc="http://creativecommons.org/ns#"
   xmlns:rdf="http://www.w3.org/1999/02/22-rdf-syntax-ns#"
   xmlns:svg="http://www.w3.org/2000/svg"
   xmlns="http://www.w3.org/2000/svg"
   xmlns:sodipodi="http://sodipodi.sourceforge.net/DTD/sodipodi-0.dtd"
   xmlns:inkscape="http://www.inkscape.org/namespaces/inkscape"
   width="111.37704mm"
   height="26.729275mm"
   viewBox="0 0 111.37704 26.729275"
   version="1.1"
   id="svg4515"
   inkscape:version="0.92.1 r15371"
   sodipodi:docname="smoothieaq-logo-v02.svg">
  <title
     id="title4556">SmoothieAq logo</title>
  <defs
     id="defs4509" />
  <sodipodi:namedview
     id="base"
     pagecolor="#f5c523"
     bordercolor="#666666"
     borderopacity="1.0"
     inkscape:pageopacity="0"
     inkscape:pageshadow="2"
     inkscape:zoom="2.6687158"
     inkscape:cx="197.44603"
     inkscape:cy="74.603567"
     inkscape:document-units="mm"
     inkscape:current-layer="layer1"
     showgrid="false"
     inkscape:window-width="1980"
     inkscape:window-height="1368"
     inkscape:window-x="99"
     inkscape:window-y="0"
     inkscape:window-maximized="0"
     fit-margin-top="0"
     fit-margin-left="0"
     fit-margin-right="0"
     fit-margin-bottom="0"
     inkscape:pagecheckerboard="false" />
  <metadata
     id="metadata4512">
    <rdf:RDF>
      <cc:Work
         rdf:about="">
        <dc:format>image/svg+xml</dc:format>
        <dc:type
           rdf:resource="http://purl.org/dc/dcmitype/StillImage" />
        <dc:title>SmoothieAq logo</dc:title>
        <dc:creator>
          <cc:Agent>
            <dc:title>Jesper L</dc:title>
          </cc:Agent>
        </dc:creator>
        <dc:contributor>
          <cc:Agent>
            <dc:title>The font used for the text in the logo is &quot;Gloria Hallelujah&quot; with some small adjustments. Thanks to Kimberly Geswein, https://fonts.google.com/specimen/Gloria+Hallelujah?selection.family=Gloria+Hallelujah
The glass and straw it taken from the 26698 &quot;Smoothie&quot; icon from The Noun Project. Thanks to Jaclyne Ooi, https://thenounproject.com/search/?q=smoothie&amp;i=26698
The raspberry PCB icon is of course inspired by the Raspberry Pi logo at https://raspberrypi.stackexchange.com/, but is made specially for SmoothieAq.</dc:title>
          </cc:Agent>
        </dc:contributor>
        <dc:rights>
          <cc:Agent>
            <dc:title>(c) 2018 all rights reserved - may be used for non-commercial use when reffering to SmoothieAq components, software, site or documentation</dc:title>
          </cc:Agent>
        </dc:rights>
        <cc:license
           rdf:resource="http://creativecommons.org/licenses/by-nc-nd/4.0/" />
      </cc:Work>
      <cc:License
         rdf:about="http://creativecommons.org/licenses/by-nc-nd/4.0/">
        <cc:permits
           rdf:resource="http://creativecommons.org/ns#Reproduction" />
        <cc:permits
           rdf:resource="http://creativecommons.org/ns#Distribution" />
        <cc:requires
           rdf:resource="http://creativecommons.org/ns#Notice" />
        <cc:requires
           rdf:resource="http://creativecommons.org/ns#Attribution" />
        <cc:prohibits
           rdf:resource="http://creativecommons.org/ns#CommercialUse" />
      </cc:License>
    </rdf:RDF>
  </metadata>
  <g
     inkscape:label="Layer 1"
     inkscape:groupmode="layer"
     id="layer1"
     transform="translate(-3.7516423,-3.9234738)">
    <path
       inkscape:connector-curvature="0"
       style="fill:#000000;stroke-width:0.26458332"
       d="m 19.472735,4.6307069 -3.47795,-0.69532 c -0.31909,-0.0643 -0.63474,0.13785 -0.70882,0.45773 l -1.01653,4.40002 H 4.7444365 c -0.17198,0 -0.33628,0.0733 -0.45111,0.20161 -0.11483,0.12832 -0.1696,0.29977 -0.15082,0.47043 0.1362687,1.4008091 0.8100672,6.9428161 1.3872139,11.6335051 0.032592,0.26489 0.9695523,0.8121 1.001414,1.070661 0.046541,0.377686 0.090641,0.812534 -0.069213,1.107647 -0.1913411,0.353241 -0.5944527,0.559906 -0.5455415,0.95524 0.038484,0.311055 0.075475,0.60981 0.1106756,0.893923 0.02783,0.224627 -0.718757,0.458753 -0.7751183,0.657659 -0.6383993,2.252995 1.0145869,2.518657 1.1530043,2.384565 0.109664,0.43434 0.260218,0.63569 0.636288,0.62039 4.3202055,0.0198 5.0048155,-0.001 9.5290255,-0.001 0.3085,0 0.56753,-0.23177 0.60166,-0.53869 l 2.08836,-18.7838301 c 0.0188,-0.17092 -0.036,-0.34211 -0.15055,-0.47043 -0.11483,-0.12832 -0.27914,-0.20161 -0.45112,-0.20161 h -3.14563 l 0.82074,-3.55521 2.90116,0.57997 c 0.33046,0.0667 0.64664,-0.14737 0.71226,-0.47466 0.0659,-0.32835 -0.14711,-0.64691 -0.4744,-0.71253 z m -5.4827,5.3731601 -0.79243,3.43218 c -0.003,0.013 0.001,0.0254 -10e-4,0.0386 -0.3749,-0.0828 -0.77019,-0.1868 -1.20225,-0.33417 -3.2543785,-1.10623 -5.1897985,-0.45403 -6.2010385,0.21457 l -0.37227,-3.35121 z m 2.03862,17.57283 h -4.27125 L 11.195251,28.64025 9.9604455,28.64248 9.377983,27.576697 H 7.4539635 c 0,0 -0.8950351,0.264474 -1.3971205,-0.07771 C 5.7236106,27.271872 5.7298827,26.534845 5.6834432,26.154335 5.6542859,25.91543 7.2083619,25.576388 7.1734114,25.287995 7.1625338,25.198239 7.1513902,25.106186 7.1399898,25.011899 7.0854358,24.560711 7.0250011,24.058369 6.9596848,23.511725 6.9210508,23.18839 7.3516361,22.824768 7.3097931,22.47185 7.2672991,22.113441 6.7523296,21.765293 6.7069557,21.37932 6.4801046,19.449611 6.2199674,17.193963 5.9536065,14.797907 c 0.27252,-0.32809 1.77482,-1.82748 5.6504385,-0.51091 1.26894,0.43206 2.33786,0.59663 3.22977,0.59663 1.18956,0 2.06216,-0.29263 2.67599,-0.63209 z m 1.95341,-17.57283 -0.28442,2.55879 c -0.0537,0.0772 -0.9271,1.25148 -3.30676,1.08902 l 0.84269,-3.64807 h 2.74849 z"
       id="path2-3"
       sodipodi:nodetypes="ccccsccssssssccccccscccccccccccccccccccssssssscsccccccccc"
       inkscape:export-xdpi="96"
       inkscape:export-ydpi="96"
       class="SmoothieAqGlass" />
    <g
       id="g4539">
      <ellipse
         inkscape:export-ydpi="96"
         inkscape:export-xdpi="96"
         transform="matrix(0.96620194,0.25778636,-0.25807462,0.96612499,0,0)"
         ry="1.4308845"
         rx="1.3693484"
         cy="20.507269"
         cx="11.298918"
         id="path5874-44"
         style="fill:none;fill-opacity:1;stroke:#cc0000;stroke-width:1;stroke-linecap:round;stroke-linejoin:round;stroke-miterlimit:4;stroke-dasharray:none;stroke-opacity:1" />
      <ellipse
         inkscape:export-ydpi="96"
         inkscape:export-xdpi="96"
         transform="matrix(0.96620194,0.25778636,-0.25807462,0.96612499,0,0)"
         ry="1.4308845"
         rx="1.3693484"
         cy="24.01651"
         cx="13.365301"
         id="path5874-4-2"
         style="fill:none;fill-opacity:1;stroke:#cc0000;stroke-width:1;stroke-linecap:round;stroke-linejoin:round;stroke-miterlimit:4;stroke-dasharray:none;stroke-opacity:1" />
      <ellipse
         inkscape:export-ydpi="96"
         inkscape:export-xdpi="96"
         transform="matrix(0.96620194,0.25778636,-0.25807462,0.96612499,0,0)"
         ry="1.4308845"
         rx="1.3693484"
         cy="24.01651"
         cx="17.291214"
         id="path5874-7-10"
         style="fill:none;fill-opacity:1;stroke:#cc0000;stroke-width:1;stroke-linecap:round;stroke-linejoin:round;stroke-miterlimit:4;stroke-dasharray:none;stroke-opacity:1" />
      <ellipse
         inkscape:export-ydpi="96"
         inkscape:export-xdpi="96"
         transform="matrix(0.96620194,0.25778636,-0.25807462,0.96612499,0,0)"
         ry="1.4308845"
         rx="1.3693484"
         cy="20.507235"
         cx="19.344397"
         id="path5874-9-79"
         style="fill:none;fill-opacity:1;stroke:#cc0000;stroke-width:1;stroke-linecap:round;stroke-linejoin:round;stroke-miterlimit:4;stroke-dasharray:none;stroke-opacity:1" />
      <ellipse
         inkscape:export-ydpi="96"
         inkscape:export-xdpi="96"
         transform="matrix(0.96620194,0.25778636,-0.25807462,0.96612499,0,0)"
         ry="1.4308845"
         rx="1.3693484"
         cy="17.021233"
         cx="17.291214"
         id="path5874-6-2"
         style="fill:none;fill-opacity:1;stroke:#cc0000;stroke-width:1;stroke-linecap:round;stroke-linejoin:round;stroke-miterlimit:4;stroke-dasharray:none;stroke-opacity:1" />
      <ellipse
         inkscape:export-ydpi="96"
         inkscape:export-xdpi="96"
         transform="matrix(0.96620194,0.25778636,-0.25807462,0.96612499,0,0)"
         ry="1.4308845"
         rx="1.3693484"
         cy="17.021233"
         cx="13.365301"
         id="path5874-76-3"
         style="fill:none;fill-opacity:1;stroke:#cc0000;stroke-width:1;stroke-linecap:round;stroke-linejoin:round;stroke-miterlimit:4;stroke-dasharray:none;stroke-opacity:1" />
      <path
         inkscape:export-ydpi="96"
         inkscape:export-xdpi="96"
         sodipodi:nodetypes="cccc"
         inkscape:connector-curvature="0"
         id="path5915-1"
         d="M 10.205305,26.391763 9.8067803,25.035637 10.949397,23.896097 C 12.249061,24.343116 9.9390322,23.551325 12.278686,24.326"
         style="fill:none;stroke:#cc0000;stroke-width:1;stroke-linecap:butt;stroke-linejoin:round;stroke-miterlimit:4;stroke-dasharray:none;stroke-opacity:1" />
      <path
         inkscape:export-ydpi="96"
         inkscape:export-xdpi="96"
         sodipodi:nodetypes="ccccc"
         inkscape:connector-curvature="0"
         id="path5956-4"
         d="m 9.0313511,20.980477 0.7773447,1.686116 -1.4962153,1.380235 -0.8818475,1.519097 v 0"
         style="fill:none;stroke:#cc0000;stroke-width:1;stroke-linecap:butt;stroke-linejoin:round;stroke-miterlimit:4;stroke-dasharray:none;stroke-opacity:1" />
    </g>
    <g
       aria-label="SmoothieAq                          "
       style="font-style:normal;font-weight:normal;font-size:10.58333302px;line-height:1.25;font-family:sans-serif;letter-spacing:0px;word-spacing:0px;fill:#000000;fill-opacity:1;stroke:none;stroke-width:0.26458332"
       id="text4493"
       class="SmoothieAqText">
      <g
         id="g4534">
        <path
           inkscape:export-ydpi="96"
           inkscape:export-xdpi="96"
           id="path4503"
           style="font-size:17.63888931px"
           d="m 23.217749,26.169123 q 0.08613,-0.413411 0.430637,-0.671794 0.361735,-0.275607 0.809597,-0.499538 0.465088,-0.223932 0.964627,-0.413412 0.499539,-0.206706 0.91295,-0.430637 0.430637,-0.223931 0.706245,-0.516764 0.275607,-0.310059 0.275607,-0.740696 0,-0.551215 -0.292833,-0.91295 -0.275607,-0.361735 -0.757921,-0.620117 -0.465088,-0.258382 -1.067979,-0.430637 -0.602892,-0.172255 -1.240235,-0.34451 -0.620117,-0.18948 -1.223009,-0.396186 -0.602891,-0.223931 -1.085205,-0.551215 -0.465088,-0.327284 -0.757921,-0.792372 -0.275607,-0.465088 -0.275607,-1.154107 0,-0.568441 0.223931,-1.06798 0.241156,-0.516764 0.620117,-0.964626 0.396186,-0.465088 0.895725,-0.844049 0.516764,-0.37896 1.067979,-0.637342 0.568441,-0.258383 1.136882,-0.396186 0.568441,-0.15503 1.050754,-0.15503 h 0.18948 q 0.15503,0.05168 0.413412,0.172255 0.258382,0.120578 0.499539,0.241157 0.241156,0.103353 0.413411,0.206705 0.172255,0.08613 0.172255,0.103353 v 0.396186 q -0.327284,0.03445 -0.844048,0.137804 -0.516765,0.08613 -1.085206,0.241157 -0.56844,0.155029 -1.154107,0.396186 -0.585666,0.223931 -1.050754,0.53399 -0.465088,0.310058 -0.757921,0.72347 -0.292833,0.396186 -0.292833,0.91295 0,0.740696 0.516764,1.171332 0.516765,0.413412 1.291911,0.68902 0.775147,0.275607 1.688097,0.499538 0.930176,0.206706 1.705322,0.516765 0.775147,0.292833 1.291911,0.792372 0.516765,0.482313 0.516765,1.309136 0,0.447863 -0.275608,0.947401 -0.258382,0.482314 -0.706245,0.964627 -0.430637,0.465088 -0.981852,0.895725 -0.551215,0.430637 -1.136881,0.757921 -0.568441,0.310059 -1.119656,0.516764 -0.551216,0.189481 -0.981853,0.189481 -0.137804,0 -0.292833,-0.03445 -0.155029,-0.03445 -0.275607,-0.103353 -0.103353,-0.08613 -0.172255,-0.241157 -0.05168,-0.155029 0.03445,-0.396186 z"
           inkscape:connector-curvature="0" />
        <path
           inkscape:export-ydpi="96"
           inkscape:export-xdpi="96"
           id="path4505"
           style="font-size:17.63888931px"
           d="m 29.470597,19.675118 q 0,-0.430637 0.137804,-0.671794 0.155029,-0.241156 0.637342,-0.241156 0.05168,0 0.189481,0.01722 0.155029,0 0.18948,0 0.120578,0.53399 0.241157,1.171333 0.137803,0.620117 0.310058,1.257459 0.172255,0.637343 0.378961,1.25746 0.223931,0.620118 0.533989,1.119656 0.310059,-0.327284 0.447863,-0.775146 0.137804,-0.447863 0.206706,-0.895725 0.0689,-0.465088 0.120578,-0.878499 0.0689,-0.430637 0.258382,-0.72347 0.18948,-0.310059 0.551215,-0.447863 0.378961,-0.137804 1.033529,0 0.72347,0 1.154107,0.275608 0.430637,0.258382 0.740696,0.671793 0.327284,0.396186 0.620117,0.861274 0.310058,0.447863 0.775146,0.809598 0.103353,-0.223931 0.258383,-0.551215 0.155029,-0.34451 0.37896,-0.706245 0.241157,-0.378961 0.499539,-0.740696 0.275608,-0.37896 0.568441,-0.671793 0.292833,-0.310059 0.602891,-0.499539 0.310059,-0.206706 0.602892,-0.206706 0.706245,0 1.223009,0.447863 0.516764,0.430637 0.878499,1.10243 0.378961,0.654568 0.620118,1.481391 0.241156,0.809598 0.37896,1.567519 0.137804,0.757921 0.18948,1.395263 0.0689,0.620118 0.0689,0.895725 0,0.223932 -0.103353,0.34451 -0.103352,0.120578 -0.258382,0.18948 -0.155029,0.05168 -0.344509,0.0689 -0.172255,0.01723 -0.327284,0.01723 -0.03445,0 -0.103353,0 -0.0689,-0.01723 -0.15503,-0.03445 -0.0689,-0.01723 -0.18948,-0.05168 L 41.666235,21.38044 q 0,-0.05168 -0.137804,-0.18948 -0.137803,-0.155029 -0.206705,-0.18948 -0.05168,0 -0.08613,-0.01723 -0.03445,0 -0.05168,0 -0.01723,-0.01722 -0.03445,-0.01722 -0.361735,0 -0.689019,0.292833 -0.310059,0.292833 -0.585667,0.740695 -0.275607,0.447863 -0.516764,0.999078 -0.241157,0.551215 -0.430637,1.102431 -0.18948,0.53399 -0.344509,0.999077 -0.137804,0.447863 -0.223932,0.68902 -0.0689,0.03445 -0.275607,0.0689 -0.206706,0.01722 -0.275608,0.01722 -0.482313,0 -0.740695,-0.327284 -0.258383,-0.34451 -0.430637,-0.844049 -0.15503,-0.499538 -0.275608,-1.085205 -0.103353,-0.602891 -0.275608,-1.10243 -0.155029,-0.499539 -0.447862,-0.826823 -0.275608,-0.34451 -0.792372,-0.34451 -0.18948,0 -0.361735,0.378961 -0.172255,0.37896 -0.310059,0.964627 -0.137804,0.56844 -0.258382,1.240234 -0.120578,0.654568 -0.206706,1.240234 -0.0689,0.568441 -0.103352,0.964627 -0.03445,0.396186 -0.03445,0.396186 -0.03445,0.05168 -0.137804,0.120578 -0.103353,0.05168 -0.223931,0.120579 -0.103353,0.0689 -0.223932,0.103353 -0.103353,0.03445 -0.155029,0.03445 -0.482313,0 -0.930176,-0.430637 Q 31.451527,26.031319 31.072566,25.3423 30.710831,24.636056 30.400773,23.792007 30.10794,22.947959 29.901234,22.138361 29.694528,21.328764 29.57395,20.674196 29.470597,20.019628 29.470597,19.675118 Z"
           inkscape:connector-curvature="0" />
        <path
           inkscape:export-ydpi="96"
           inkscape:export-xdpi="96"
           sodipodi:nodetypes="scccscccsccsscccsccccscccssccsccccccc"
           inkscape:connector-curvature="0"
           id="path4507"
           style="font-size:17.63888931px"
           d="m 45.043631,23.413048 c 0,-0.711987 0.166513,-1.372297 0.499539,-1.98093 0.333026,-0.620117 0.769405,-1.148365 1.309137,-1.584744 0.551215,-0.447863 1.165591,-0.798114 1.843126,-1.050754 0.689019,-0.252641 1.38378,-0.378961 2.084283,-0.378961 0.390444,0 0.734953,0.12632 1.033528,0.378961 0.310059,0.25264 0.568441,0.562698 0.775147,0.930175 0.206705,0.355993 0.361735,0.734954 0.465088,1.136882 0.114836,0.401928 0.172254,0.752179 0.172254,1.050754 0,0.643085 -0.155029,1.268944 -0.465087,1.877577 -0.310059,0.59715 -0.711987,1.13114 -1.205784,1.60197 -0.493797,0.459346 -1.050754,0.832565 -1.670871,1.119656 -0.620117,0.287091 -1.240235,0.430637 -1.860352,0.430637 -0.551215,0 -1.016303,-0.09187 -1.395264,-0.275608 -0.37896,-0.195222 -0.683277,-0.447862 -0.91295,-0.757921 -0.229673,-0.321542 -0.401927,-0.694761 -0.516764,-1.119656 -0.103353,-0.436379 -0.15503,-0.895725 -0.15503,-1.378038 z m 1.464166,0.172254 c 0,0.298575 0.02297,0.562699 0.0689,0.792372 0.05742,0.218189 0.149289,0.40767 0.275608,0.568441 0.137803,0.160771 0.3158,0.287092 0.533989,0.378961 0.218189,0.08038 0.488055,0.120578 0.809598,0.120578 0.424895,0 0.84979,-0.114837 1.274685,-0.34451 0.424895,-0.241157 0.803856,-0.539731 1.136882,-0.895724 0.344509,-0.367477 0.620117,-0.769405 0.826823,-1.205784 0.206705,-0.436379 0.310058,-0.861274 0.310058,-1.274685 0,-0.183739 -0.01723,-0.384703 -0.05168,-0.602892 -0.03445,-0.218189 -0.09187,-0.419153 -0.172255,-0.602892 -0.08038,-0.183738 -0.195222,-0.338767 -0.344509,-0.465088 -0.149288,-0.12632 -0.338768,-0.18948 -0.568441,-0.18948 -0.206706,0 -0.453605,0.0689 -0.740696,0.206706 -0.275607,0.137804 -0.673597,0.245696 -0.983656,0.463886 -0.298575,0.218189 -0.632202,0.430035 -0.930777,0.705642 -0.287091,0.275608 -0.516163,0.481112 -0.75732,0.756719 -0.241156,0.275608 -0.331222,0.714993 -0.480509,0.967633 -0.137804,0.252641 -0.206706,0.459346 -0.206706,0.620117 z" />
        <path
           inkscape:export-ydpi="96"
           inkscape:export-xdpi="96"
           inkscape:connector-curvature="0"
           id="path4509"
           style="font-size:17.63888931px"
           d="m 53.515712,23.969253 q -0.09099,-1.064096 0.328948,-2.016287 0.418472,-0.969354 1.169357,-1.69052 0.766581,-0.739796 1.746901,-1.203966 0.997484,-0.46564 2.044417,-0.555163 0.583537,-0.0499 1.062057,0.289527 0.495685,0.337957 0.851579,0.860751 0.354428,0.505631 0.560259,1.093123 0.222995,0.586023 0.261152,1.032257 0.08219,0.961119 -0.303428,1.910375 -0.387082,0.932093 -1.064913,1.698877 -0.679297,0.749621 -1.569401,1.257942 -0.890104,0.508322 -1.816898,0.587573 -0.823816,0.07044 -1.413671,-0.155731 -0.591323,-0.243337 -0.974206,-0.677382 -0.384349,-0.451207 -0.610279,-1.071557 -0.210234,-0.638979 -0.271874,-1.359819 z m 1.473518,0.04688 q 0.03816,0.446235 0.136159,0.783621 0.113701,0.318755 0.323036,0.542892 0.226501,0.222669 0.564336,0.332088 0.336367,0.09226 0.816927,0.05116 0.635025,-0.0543 1.240698,-0.45186 0.604206,-0.414721 1.056433,-0.989329 0.467921,-0.59324 0.721084,-1.271844 0.253163,-0.678605 0.200329,-1.296467 -0.02348,-0.274606 -0.102858,-0.596297 -0.07938,-0.321691 -0.222995,-0.586024 -0.143621,-0.264332 -0.382881,-0.434045 -0.239261,-0.169712 -0.582518,-0.14036 -0.308932,0.02642 -0.720392,0.269061 -0.394296,0.241177 -0.829809,0.606896 -0.418349,0.364252 -0.829361,0.814317 -0.393849,0.448599 -0.719046,0.891327 -0.325197,0.442728 -0.516027,0.839389 -0.173667,0.395194 -0.15312,0.635473 z" />
        <path
           inkscape:export-ydpi="96"
           inkscape:export-xdpi="96"
           inkscape:connector-curvature="0"
           id="path4511"
           style="font-size:17.63888931px"
           d="m 60.714853,18.228178 q 0,-0.05168 0.01723,-0.08613 0,-0.03445 0.01722,-0.08613 0.0689,-0.08613 0.206706,-0.223931 0.137804,-0.137804 0.172255,-0.137804 h 3.462321 q 0,-0.18948 -0.05168,-0.602892 -0.05168,-0.413411 -0.103352,-0.91295 -0.03445,-0.499539 -0.01723,-1.033529 0.01723,-0.551215 0.137804,-0.981852 0.137804,-0.447862 0.413411,-0.72347 0.292834,-0.292833 0.809598,-0.292833 0,1.739773 0.241157,2.790527 0.241156,1.050754 0.637342,1.619195 0.413412,0.568441 0.930176,0.740696 0.516764,0.172255 1.050754,0.155029 0.551215,-0.03445 1.06798,-0.172255 0.516764,-0.137804 0.91295,-0.18948 0.413412,-0.05168 0.654568,0.08613 0.241157,0.120579 0.241157,0.602892 0,0.361735 -0.172255,0.516764 -0.155029,0.15503 -0.620117,0.241157 -0.137804,0.01723 -0.465088,0.0689 -0.310058,0.03445 -0.706244,0.0689 -0.396186,0.03445 -0.844049,0.08613 -0.447862,0.03445 -0.844048,0.0689 -0.396186,0.03445 -0.72347,0.05168 -0.327284,0 -0.482314,0 0,0.08613 -0.01722,0.292833 -0.01723,0.206706 -0.01723,0.275607 0,0.757921 0.241157,1.481392 0.241157,0.706244 0.516764,1.412489 0.292833,0.706244 0.53399,1.412489 0.241157,0.706245 0.241157,1.464166 0,0.137803 -0.03445,0.292833 -0.01723,0.137803 -0.103353,0.258382 -0.0689,0.103353 -0.223931,0.155029 -0.137804,0.0689 -0.396186,-0.01722 -0.654568,-0.172255 -0.981852,-0.740696 -0.310059,-0.568441 -0.465088,-1.343587 -0.15503,-0.792372 -0.206706,-1.670872 -0.05168,-0.878499 -0.172255,-1.63642 -0.103353,-0.775146 -0.344509,-1.309136 -0.241157,-0.551216 -0.775147,-0.671794 l -3.324517,-0.757921 q -0.0689,0 -0.206706,-0.137804 -0.137804,-0.155029 -0.172255,-0.223931 -0.01722,-0.03445 -0.01722,-0.08613 -0.01723,-0.03445 -0.01723,-0.103353 z" />
        <path
           inkscape:export-ydpi="96"
           inkscape:export-xdpi="96"
           inkscape:connector-curvature="0"
           id="path4513"
           style="font-size:17.63888931px"
           d="m 72.686561,15.713258 q 0,-0.18948 0.03445,-0.465088 0.05168,-0.292833 0.155029,-0.551215 0.120579,-0.258382 0.292833,-0.430637 0.172255,-0.18948 0.447863,-0.18948 0.01722,0 0.08613,0.01722 0.0689,0.01723 0.08613,0.01723 0.292833,1.067979 0.344509,2.118733 0.05168,1.050755 -0.03445,2.049832 -0.08613,0.981852 -0.258382,1.912028 -0.172255,0.912951 -0.292833,1.688097 -0.103353,0.775147 -0.137804,1.395264 -0.01723,0.620117 0.18948,1.050754 -0.03445,-0.275608 -0.05168,-0.654568 0,-0.396186 0.0689,-0.809598 0.08613,-0.413411 0.258382,-0.826823 0.18948,-0.413411 0.53399,-0.740695 0.344509,-0.327284 0.878499,-0.516764 0.551216,-0.189481 1.360813,-0.189481 0.844048,0 1.44694,0.292833 0.620117,0.292834 1.016303,0.809598 0.396186,0.499539 0.585667,1.188558 0.206705,0.671793 0.206705,1.44694 0,0.361735 -0.01722,0.826823 0,0.447862 -0.120579,0.844048 -0.103352,0.378961 -0.396186,0.654568 -0.275607,0.258383 -0.826822,0.258383 0,-0.275608 0.03445,-0.740696 0.03445,-0.482313 0.03445,-1.016303 0.01723,-0.53399 -0.03445,-1.085205 -0.03445,-0.551215 -0.223931,-0.981852 -0.18948,-0.447863 -0.53399,-0.723471 -0.327284,-0.292833 -0.91295,-0.292833 -0.206706,0 -0.516764,0.03445 -0.292833,0.01723 -0.602892,0.15503 -0.310059,0.137803 -0.602892,0.430637 -0.292833,0.275607 -0.465088,0.775146 -0.172254,0.482313 -0.206705,1.240234 -0.01723,0.740696 0.18948,1.825901 -0.120578,0.310059 -0.310059,0.361735 -0.172254,0.05168 -0.447862,0.05168 -0.551215,0 -0.91295,-0.378961 -0.34451,-0.396186 -0.53399,-1.050754 -0.18948,-0.654568 -0.258382,-1.515842 -0.05168,-0.861274 -0.03445,-1.79145 0.01723,-0.947401 0.08613,-1.912028 0.08613,-0.981852 0.155029,-1.843126 0.08613,-0.878499 0.15503,-1.584744 0.08613,-0.72347 0.08613,-1.154107 z" />
        <path
           inkscape:export-ydpi="96"
           inkscape:export-xdpi="96"
           inkscape:connector-curvature="0"
           id="path4515"
           style="font-size:17.63888931px"
           d="m 81.316529,20.450264 q 0,-0.103352 0,-0.327284 0.01722,-0.241156 0.01722,-0.499538 0.01723,-0.258383 0.01723,-0.499539 0.01723,-0.241157 0.01723,-0.34451 0.18948,-0.275608 0.482313,-0.447862 0.310059,-0.172255 0.620118,-0.275608 0.05168,0.930176 0.292833,1.98093 0.241156,1.050754 0.516764,2.118734 0.275608,1.050754 0.482314,2.084283 0.223931,1.033528 0.223931,1.929253 0,0.775147 -0.792372,0.775147 -0.482314,0 -0.809598,-0.396186 -0.327284,-0.396186 -0.53399,-0.999078 -0.18948,-0.620117 -0.310058,-1.360813 -0.120578,-0.757921 -0.172255,-1.481391 -0.03445,-0.72347 -0.05168,-1.326362 0,-0.602891 0,-0.930176 z m 0.241156,-6.459554 q 0.327284,0.137804 0.551216,0.447863 0.223931,0.310058 0.18948,0.56844 -0.01723,0.241157 -0.378961,0.34451 -0.361735,0.08613 -1.205783,-0.206706 0,-0.465088 0.172255,-0.809597 0.18948,-0.34451 0.671793,-0.34451 z" />
        <path
           inkscape:export-ydpi="96"
           inkscape:export-xdpi="96"
           inkscape:connector-curvature="0"
           id="path4517"
           style="font-size:17.63888931px"
           d="m 84.658267,22.121136 q 0,-0.930176 0.223931,-1.860352 0.223931,-0.930176 0.706245,-1.670871 0.499539,-0.740696 1.274685,-1.205784 0.792372,-0.465088 1.912028,-0.465088 0.637343,0 1.119656,0.241157 0.482314,0.223931 0.809598,0.602892 0.327284,0.37896 0.482313,0.895725 0.172255,0.499539 0.172255,1.050754 0,0.878499 -0.413412,1.705322 -0.396186,0.826823 -1.085205,1.464166 -0.671793,0.620117 -1.550293,0.947401 -0.878499,0.310059 -1.791449,0.137804 0.01722,0.499539 0.327284,0.809597 0.327284,0.292834 0.775146,0.447863 0.447863,0.155029 0.930176,0.206706 0.482313,0.03445 0.861274,0.03445 0.396186,0 0.740695,-0.0689 0.34451,-0.0689 0.68902,-0.15503 0.344509,-0.08613 0.689019,-0.155029 0.361735,-0.0689 0.757921,-0.0689 0.155029,0 0.310058,0.01723 0.15503,0.01722 0.292833,0.08613 0.137804,0.05168 0.223932,0.18948 0.08613,0.120579 0.08613,0.310059 0,0.327284 -0.241157,0.551215 -0.241156,0.206706 -0.620117,0.361735 -0.361735,0.155029 -0.809597,0.241157 -0.447863,0.0689 -0.8785,0.120578 -0.413411,0.03445 -0.775146,0.03445 -0.34451,0.01723 -0.516765,0.01723 -1.10243,0 -1.980929,-0.34451 -0.8785,-0.361735 -1.481392,-0.981852 -0.602891,-0.637343 -0.930175,-1.515842 -0.310059,-0.895725 -0.310059,-1.98093 z m 1.825901,-1.119656 q 0,0.602891 0.155029,0.878499 0.172255,0.275608 0.809597,0.275608 0.447863,0 0.8785,-0.15503 0.430637,-0.172254 0.775146,-0.465087 0.361735,-0.292834 0.568441,-0.68902 0.206706,-0.396186 0.206706,-0.861273 0,-0.258383 -0.05168,-0.53399 -0.03445,-0.275608 -0.172254,-0.499539 -0.137804,-0.241157 -0.361735,-0.378961 -0.206706,-0.155029 -0.551216,-0.155029 -0.516764,0 -0.947401,0.241157 -0.413411,0.223931 -0.706245,0.602891 -0.292833,0.361736 -0.447862,0.826823 -0.155029,0.447863 -0.155029,0.912951 z" />
        <path
           inkscape:export-ydpi="96"
           inkscape:export-xdpi="96"
           inkscape:connector-curvature="0"
           id="path4519"
           style="font-size:17.63888931px"
           d="m 98.519954,11.785849 q 0.103353,-0.310058 0.292833,-0.361735 0.206709,-0.05168 0.465089,-0.05168 0.396177,0 0.878494,0.533989 0.49954,0.516765 1.0163,1.395264 0.51677,0.8785 1.03353,2.015381 0.53399,1.136882 1.0163,2.359891 0.49954,1.205783 0.93018,2.411566 0.43064,1.205784 0.74069,2.222087 0.32729,0.999078 0.49954,1.739773 0.17226,0.740696 0.17226,1.016304 0,0.275607 -0.13781,0.533989 -0.12057,0.241157 -0.44786,0.241157 -0.2067,0 -0.36173,-0.120578 -0.13781,-0.137804 -0.24116,-0.327284 -0.10335,-0.189481 -0.18948,-0.378961 -0.0861,-0.18948 -0.15503,-0.327284 -0.0689,-0.18948 -0.29283,-0.72347 -0.20671,-0.53399 -0.44786,-1.119656 -0.22394,-0.585666 -0.43064,-1.102431 -0.20671,-0.516764 -0.29284,-0.740695 -1.20578,-0.206706 -2.42879,-0.378961 -1.205775,-0.18948 -2.549362,-0.361735 h -0.18948 q -0.620118,2.669949 -1.102431,4.220242 -0.465088,1.550293 -0.792372,2.204861 -0.310059,0.654569 -0.499539,0.53399 -0.172255,-0.103353 -0.241157,-0.775146 -0.05168,-0.689019 0.01723,-1.825901 0.08613,-1.136881 0.292833,-2.497694 0.223931,-1.378038 0.53399,-2.876655 0.310058,-1.498617 0.740695,-2.89388 0.447863,-1.395264 0.981853,-2.583822 0.551215,-1.205783 1.188558,-1.98093 z m -0.413412,6.063368 q 0,0.637343 0.413412,0.947402 0.413411,0.292833 0.999079,0.37896 0.585657,0.08613 1.222997,0.0689 0.65457,-0.01722 1.11966,-0.01722 0,-0.68902 -0.22393,-1.481392 -0.22393,-0.809597 -0.56844,-1.601969 -0.34451,-0.792372 -0.7407,-1.533068 -0.378957,-0.757921 -0.706237,-1.360812 -0.189477,0.18948 -0.413407,0.706244 -0.20671,0.499539 -0.43064,1.136882 -0.206706,0.620117 -0.378961,1.223009 -0.172254,0.602891 -0.258382,0.981852 0,0.05168 -0.01722,0.275608 -0.01723,0.206705 -0.01723,0.275607 z" />
        <path
           inkscape:export-ydpi="96"
           inkscape:export-xdpi="96"
           inkscape:connector-curvature="0"
           id="path4521"
           style="font-size:17.63888931px"
           d="m 112.02594,24.670507 q -0.36173,0 -0.70624,0.120578 -0.34451,0.120578 -0.68902,0.275608 -0.34451,0.155029 -0.70625,0.275607 -0.34451,0.120579 -0.74069,0.120579 -0.75792,0 -1.36082,-0.241157 -0.60289,-0.258382 -1.03352,-0.706245 -0.41342,-0.447862 -0.65457,-1.050754 -0.22393,-0.620117 -0.22393,-1.343587 0,-0.947401 0.36173,-1.584744 0.36174,-0.654568 0.9474,-1.050754 0.60289,-0.396186 1.36082,-0.551216 0.75792,-0.172254 1.55029,-0.172254 0.8785,0.03445 1.58474,0.585666 0.70625,0.53399 1.25746,1.395264 0.56844,0.861273 0.98185,1.946479 0.41342,1.067979 0.6718,2.187635 0.27561,1.119656 0.39618,2.17041 0.12058,1.050755 0.10336,1.860352 -0.0172,0.826823 -0.15503,1.309136 -0.12058,0.482314 -0.37896,0.430637 -0.46509,-0.0689 -0.70625,-0.413411 -0.22393,-0.327284 -0.36173,-0.826823 -0.12058,-0.499539 -0.15503,-1.102431 -0.0172,-0.585666 -0.0344,-1.188558 -0.0172,-0.585666 -0.0689,-1.119656 -0.0345,-0.551215 -0.15503,-0.895725 -0.12058,-0.361735 -0.37896,-0.499538 -0.25839,-0.137804 -0.70625,0.0689 z m -4.65088,-2.377116 q 0,0.292833 0.13781,0.585666 0.15503,0.292833 0.39618,0.53399 0.24116,0.241156 0.53399,0.396186 0.29283,0.155029 0.58567,0.155029 0.29283,0 0.75792,-0.120578 0.46509,-0.137804 0.91295,-0.378961 0.44786,-0.258382 0.77515,-0.585666 0.32728,-0.34451 0.32728,-0.757921 0,-0.585666 -0.0689,-1.016303 -0.0689,-0.430637 -0.24116,-0.706245 -0.17225,-0.275608 -0.49954,-0.396186 -0.32728,-0.137804 -0.86127,-0.137804 -0.43064,0 -0.91295,0.206706 -0.48232,0.18948 -0.89573,0.53399 -0.39618,0.344509 -0.67179,0.792372 -0.27561,0.430637 -0.27561,0.895725 z" />
      </g>
    </g>
  </g>
</svg>
