<?xml version="1.0" encoding="UTF-8" standalone="no"?>
<!-- Created with Inkscape (http://www.inkscape.org/) -->

<svg
   xmlns:dc="http://purl.org/dc/elements/1.1/"
   xmlns:cc="http://creativecommons.org/ns#"
   xmlns:rdf="http://www.w3.org/1999/02/22-rdf-syntax-ns#"
   xmlns:svg="http://www.w3.org/2000/svg"
   xmlns="http://www.w3.org/2000/svg"
   xmlns:sodipodi="http://sodipodi.sourceforge.net/DTD/sodipodi-0.dtd"
   xmlns:inkscape="http://www.inkscape.org/namespaces/inkscape"
   width="210mm"
   height="297mm"
   viewBox="0 0 210 297"
   version="1.1"
   id="svg5317"
   inkscape:version="0.92.1 r15371"
   sodipodi:docname="smoothie-simple.svg">
  <defs
     id="defs5311" />
  <sodipodi:namedview
     id="base"
     pagecolor="#ffffff"
     bordercolor="#666666"
     borderopacity="1.0"
     inkscape:pageopacity="0.0"
     inkscape:pageshadow="2"
     inkscape:zoom="12.222151"
     inkscape:cx="378.9121"
     inkscape:cy="601.5992"
     inkscape:document-units="mm"
     inkscape:current-layer="layer1"
     showgrid="false"
     inkscape:window-width="2560"
     inkscape:window-height="1377"
     inkscape:window-x="-8"
     inkscape:window-y="-8"
     inkscape:window-maximized="1" />
  <metadata
     id="metadata5314">
    <rdf:RDF>
      <cc:Work
         rdf:about="">
        <dc:format>image/svg+xml</dc:format>
        <dc:type
           rdf:resource="http://purl.org/dc/dcmitype/StillImage" />
        <dc:title></dc:title>
      </cc:Work>
    </rdf:RDF>
  </metadata>
  <g
     inkscape:label="Layer 1"
     inkscape:groupmode="layer"
     id="layer1">
    <path
       inkscape:connector-curvature="0"
       style="fill:#000000;stroke-width:0.26458332"
       d="m 107.99686,125.72806 -3.47795,-0.69532 c -0.31909,-0.0643 -0.63474,0.13785 -0.70882,0.45773 l -1.01653,4.40002 h -9.524998 c -0.17198,0 -0.33628,0.0733 -0.45111,0.20161 -0.11483,0.12832 -0.1696,0.29977 -0.15082,0.47043 0.247146,2.5406 2.262435,18.7032 2.262435,18.7032 0.109664,0.43434 0.260218,0.63569 0.636288,0.62039 4.320205,0.0198 5.004815,-0.001 9.529025,-0.001 0.3085,0 0.56753,-0.23177 0.60166,-0.53869 l 2.08836,-18.78383 c 0.0188,-0.17092 -0.036,-0.34211 -0.15055,-0.47043 -0.11483,-0.12832 -0.27914,-0.20161 -0.45112,-0.20161 h -3.14563 l 0.82074,-3.55521 2.90116,0.57997 c 0.33046,0.0667 0.64664,-0.14737 0.71226,-0.47466 0.0659,-0.32835 -0.14711,-0.64691 -0.4744,-0.71253 z m -5.4827,5.37316 -0.79243,3.43218 c -0.003,0.013 0.001,0.0254 -10e-4,0.0386 -0.37491,-0.0828 -0.7702,-0.1868 -1.20226,-0.33417 -3.254378,-1.10623 -5.189798,-0.45403 -6.201038,0.21457 l -0.37227,-3.35121 z m 2.03862,17.57283 h -8.574691 c 0,0 -0.723723,-5.79256 -1.500357,-12.77879 0.27252,-0.32809 1.77482,-1.82748 5.650438,-0.51091 1.26894,0.43206 2.33786,0.59663 3.22977,0.59663 1.18956,0 2.06216,-0.29263 2.67599,-0.63209 z m 1.95341,-17.57283 -0.28442,2.55879 c -0.0537,0.0772 -0.9271,1.25148 -3.30676,1.08902 l 0.84269,-3.64807 h 2.74849 z"
       id="path2"
       sodipodi:nodetypes="ccccsccccccccsccccccccccccccccscccccccc" />
  </g>
</svg>
