<?xml version="1.0" encoding="UTF-8" standalone="no"?>
<!-- Created with Inkscape (http://www.inkscape.org/) -->

<svg
   xmlns:dc="http://purl.org/dc/elements/1.1/"
   xmlns:cc="http://creativecommons.org/ns#"
   xmlns:rdf="http://www.w3.org/1999/02/22-rdf-syntax-ns#"
   xmlns:svg="http://www.w3.org/2000/svg"
   xmlns="http://www.w3.org/2000/svg"
   xmlns:sodipodi="http://sodipodi.sourceforge.net/DTD/sodipodi-0.dtd"
   xmlns:inkscape="http://www.inkscape.org/namespaces/inkscape"
   width="210mm"
   height="297mm"
   viewBox="0 0 210 297"
   version="1.1"
   id="svg4515"
   inkscape:version="0.92.1 r15371"
   sodipodi:docname="smoothie-v01.svg">
  <defs
     id="defs4509" />
  <sodipodi:namedview
     id="base"
     pagecolor="#ffffff"
     bordercolor="#666666"
     borderopacity="1.0"
     inkscape:pageopacity="0.0"
     inkscape:pageshadow="2"
     inkscape:zoom="1.8870671"
     inkscape:cx="67.067553"
     inkscape:cy="924.9658"
     inkscape:document-units="mm"
     inkscape:current-layer="layer1"
     showgrid="false"
     inkscape:window-width="1519"
     inkscape:window-height="1067"
     inkscape:window-x="156"
     inkscape:window-y="156"
     inkscape:window-maximized="0" />
  <metadata
     id="metadata4512">
    <rdf:RDF>
      <cc:Work
         rdf:about="">
        <dc:format>image/svg+xml</dc:format>
        <dc:type
           rdf:resource="http://purl.org/dc/dcmitype/StillImage" />
        <dc:title></dc:title>
      </cc:Work>
    </rdf:RDF>
  </metadata>
  <g
     inkscape:label="Layer 1"
     inkscape:groupmode="layer"
     id="layer1">
    <path
       inkscape:connector-curvature="0"
       style="fill:#000000;stroke-width:0.26458332"
       d="m 19.472735,4.6307069 -3.47795,-0.69532 c -0.31909,-0.0643 -0.63474,0.13785 -0.70882,0.45773 l -1.01653,4.40002 H 4.7444365 c -0.17198,0 -0.33628,0.0733 -0.45111,0.20161 -0.11483,0.12832 -0.1696,0.29977 -0.15082,0.47043 0.247146,2.5406001 2.262435,18.7032001 2.262435,18.7032001 0.109664,0.43434 0.260218,0.63569 0.636288,0.62039 4.3202055,0.0198 5.0048155,-0.001 9.5290255,-0.001 0.3085,0 0.56753,-0.23177 0.60166,-0.53869 l 2.08836,-18.7838301 c 0.0188,-0.17092 -0.036,-0.34211 -0.15055,-0.47043 -0.11483,-0.12832 -0.27914,-0.20161 -0.45112,-0.20161 h -3.14563 l 0.82074,-3.55521 2.90116,0.57997 c 0.33046,0.0667 0.64664,-0.14737 0.71226,-0.47466 0.0659,-0.32835 -0.14711,-0.64691 -0.4744,-0.71253 z m -5.4827,5.3731601 -0.79243,3.43218 c -0.003,0.013 0.001,0.0254 -10e-4,0.0386 -0.3749,-0.0828 -0.77019,-0.1868 -1.20225,-0.33417 -3.2543785,-1.10623 -5.1897985,-0.45403 -6.2010385,0.21457 l -0.37227,-3.35121 z m 2.03862,17.57283 H 7.4539635 c 0,0 -0.723723,-5.79256 -1.500357,-12.77879 0.27252,-0.32809 1.77482,-1.82748 5.6504385,-0.51091 1.26894,0.43206 2.33786,0.59663 3.22977,0.59663 1.18956,0 2.06216,-0.29263 2.67599,-0.63209 z m 1.95341,-17.57283 -0.28442,2.55879 c -0.0537,0.0772 -0.9271,1.25148 -3.30676,1.08902 l 0.84269,-3.64807 h 2.74849 z"
       id="path2-3"
       sodipodi:nodetypes="ccccsccccccccsccccccccccccccccscccccccc" />
    <ellipse
       style="fill:#ffffff;fill-opacity:1;stroke:#ba0000;stroke-width:0.90000004;stroke-linecap:round;stroke-linejoin:round;stroke-miterlimit:4;stroke-dasharray:none;stroke-opacity:1"
       id="path5874-44"
       cx="11.87597"
       cy="21.8288"
       rx="1.1903262"
       ry="1.2439426"
       transform="matrix(0.96619448,0.25781433,-0.25804663,0.96613246,0,0)" />
    <ellipse
       style="fill:#ffffff;fill-opacity:1;stroke:#ba0000;stroke-width:0.90000004;stroke-linecap:round;stroke-linejoin:round;stroke-miterlimit:4;stroke-dasharray:none;stroke-opacity:1"
       id="path5874-4-2"
       cx="13.672204"
       cy="24.879566"
       rx="1.1903262"
       ry="1.2439426"
       transform="matrix(0.96619448,0.25781433,-0.25804663,0.96613246,0,0)" />
    <ellipse
       style="fill:#ffffff;fill-opacity:1;stroke:#ba0000;stroke-width:0.90000004;stroke-linecap:round;stroke-linejoin:round;stroke-miterlimit:4;stroke-dasharray:none;stroke-opacity:1"
       id="path5874-7-10"
       cx="17.084862"
       cy="24.879566"
       rx="1.1903262"
       ry="1.2439426"
       transform="matrix(0.96619448,0.25781433,-0.25804663,0.96613246,0,0)" />
    <ellipse
       style="fill:#ffffff;fill-opacity:1;stroke:#ba0000;stroke-width:0.90000004;stroke-linecap:round;stroke-linejoin:round;stroke-miterlimit:4;stroke-dasharray:none;stroke-opacity:1"
       id="path5874-9-79"
       cx="18.869621"
       cy="21.82877"
       rx="1.1903262"
       ry="1.2439426"
       transform="matrix(0.96619448,0.25781433,-0.25804663,0.96613246,0,0)" />
    <ellipse
       style="fill:#ffffff;fill-opacity:1;stroke:#ba0000;stroke-width:0.90000004;stroke-linecap:round;stroke-linejoin:round;stroke-miterlimit:4;stroke-dasharray:none;stroke-opacity:1"
       id="path5874-6-2"
       cx="17.084862"
       cy="18.798206"
       rx="1.1903262"
       ry="1.2439426"
       transform="matrix(0.96619448,0.25781433,-0.25804663,0.96613246,0,0)" />
    <ellipse
       style="fill:#ffffff;fill-opacity:1;stroke:#ba0000;stroke-width:0.90000004;stroke-linecap:round;stroke-linejoin:round;stroke-miterlimit:4;stroke-dasharray:none;stroke-opacity:1"
       id="path5874-76-3"
       cx="13.672204"
       cy="18.798206"
       rx="1.1903262"
       ry="1.2439426"
       transform="matrix(0.96619448,0.25781433,-0.25804663,0.96613246,0,0)" />
    <path
       style="fill:none;stroke:#ba0000;stroke-width:0.89999998;stroke-linecap:butt;stroke-linejoin:round;stroke-miterlimit:4;stroke-dasharray:none;stroke-opacity:1"
       d="m 9.8234365,27.338787 -0.346421,-1.17896 0.9932285,-0.99067 c 1.129743,0.38862 -0.8782675,-0.29973 1.155495,0.37374"
       id="path5915-1"
       inkscape:connector-curvature="0"
       sodipodi:nodetypes="cccc" />
    <path
       style="fill:none;stroke:#ba0000;stroke-width:0.89999998;stroke-linecap:butt;stroke-linejoin:round;stroke-miterlimit:4;stroke-dasharray:none;stroke-opacity:1"
       d="m 8.8029675,22.634437 0.675713,1.46584 -1.300597,1.19992 -0.766553,1.32064 v 0"
       id="path5956-4"
       inkscape:connector-curvature="0"
       sodipodi:nodetypes="ccccc" />
  </g>
</svg>
