<?xml version="1.0" encoding="UTF-8" standalone="no"?>
<!-- Created with Inkscape (http://www.inkscape.org/) -->

<svg
   xmlns:dc="http://purl.org/dc/elements/1.1/"
   xmlns:cc="http://creativecommons.org/ns#"
   xmlns:rdf="http://www.w3.org/1999/02/22-rdf-syntax-ns#"
   xmlns:svg="http://www.w3.org/2000/svg"
   xmlns="http://www.w3.org/2000/svg"
   xmlns:sodipodi="http://sodipodi.sourceforge.net/DTD/sodipodi-0.dtd"
   xmlns:inkscape="http://www.inkscape.org/namespaces/inkscape"
   width="16.207436mm"
   height="25.663586mm"
   viewBox="0 0 16.207436 25.663586"
   version="1.1"
   id="svg4515"
   inkscape:version="0.92.1 r15371"
   sodipodi:docname="smoothieaq-glass-v02.svg">
  <title
     id="title4556">SmoothieAq logo</title>
  <defs
     id="defs4509" />
  <sodipodi:namedview
     id="base"
     pagecolor="#f5c523"
     bordercolor="#666666"
     borderopacity="1.0"
     inkscape:pageopacity="0"
     inkscape:pageshadow="2"
     inkscape:zoom="2.6687158"
     inkscape:cx="197.44595"
     inkscape:cy="70.575768"
     inkscape:document-units="mm"
     inkscape:current-layer="layer1"
     showgrid="false"
     inkscape:window-width="1980"
     inkscape:window-height="1368"
     inkscape:window-x="99"
     inkscape:window-y="0"
     inkscape:window-maximized="0"
     fit-margin-top="0"
     fit-margin-left="0"
     fit-margin-right="0"
     fit-margin-bottom="0"
     inkscape:pagecheckerboard="false" />
  <metadata
     id="metadata4512">
    <rdf:RDF>
      <cc:Work
         rdf:about="">
        <dc:format>image/svg+xml</dc:format>
        <dc:type
           rdf:resource="http://purl.org/dc/dcmitype/StillImage" />
        <dc:title>SmoothieAq logo</dc:title>
        <dc:creator>
          <cc:Agent>
            <dc:title>Jesper L</dc:title>
          </cc:Agent>
        </dc:creator>
        <dc:contributor>
          <cc:Agent>
            <dc:title>The font used for the text in the logo is &quot;Gloria Hallelujah&quot; with some small adjustments. Thanks to Kimberly Geswein, https://fonts.google.com/specimen/Gloria+Hallelujah?selection.family=Gloria+Hallelujah
The glass and straw it taken from the 26698 &quot;Smoothie&quot; icon from The Noun Project. Thanks to Jaclyne Ooi, https://thenounproject.com/search/?q=smoothie&amp;i=26698
The raspberry PCB icon is of course inspired by the Raspberry Pi logo at https://raspberrypi.stackexchange.com/, but is made specially for SmoothieAq.</dc:title>
          </cc:Agent>
        </dc:contributor>
        <dc:rights>
          <cc:Agent>
            <dc:title>(c) 2018 all rights reserved - may be used for non-commercial use when reffering to SmoothieAq components, software, site or documentation</dc:title>
          </cc:Agent>
        </dc:rights>
        <cc:license
           rdf:resource="http://creativecommons.org/licenses/by-nc-nd/4.0/" />
      </cc:Work>
      <cc:License
         rdf:about="http://creativecommons.org/licenses/by-nc-nd/4.0/">
        <cc:permits
           rdf:resource="http://creativecommons.org/ns#Reproduction" />
        <cc:permits
           rdf:resource="http://creativecommons.org/ns#Distribution" />
        <cc:requires
           rdf:resource="http://creativecommons.org/ns#Notice" />
        <cc:requires
           rdf:resource="http://creativecommons.org/ns#Attribution" />
        <cc:prohibits
           rdf:resource="http://creativecommons.org/ns#CommercialUse" />
      </cc:License>
    </rdf:RDF>
  </metadata>
  <g
     inkscape:label="Layer 1"
     inkscape:groupmode="layer"
     id="layer1"
     transform="translate(-3.7516642,-3.9234738)">
    <path
       inkscape:connector-curvature="0"
       style="fill:#000000;stroke-width:0.26458332"
       d="m 19.472735,4.6307069 -3.47795,-0.69532 c -0.31909,-0.0643 -0.63474,0.13785 -0.70882,0.45773 l -1.01653,4.40002 H 4.7444365 c -0.17198,0 -0.33628,0.0733 -0.45111,0.20161 -0.11483,0.12832 -0.1696,0.29977 -0.15082,0.47043 0.1362687,1.4008091 0.8100672,6.9428161 1.3872139,11.6335051 0.032592,0.26489 0.9695523,0.8121 1.001414,1.070661 0.046541,0.377686 0.090641,0.812534 -0.069213,1.107647 -0.1913411,0.353241 -0.5944527,0.559906 -0.5455415,0.95524 0.038484,0.311055 0.075475,0.60981 0.1106756,0.893923 0.02783,0.224627 -0.718757,0.458753 -0.7751183,0.657659 -0.6383993,2.252995 1.0145869,2.518657 1.1530043,2.384565 0.109664,0.43434 0.260218,0.63569 0.636288,0.62039 4.3202055,0.0198 5.0048155,-0.001 9.5290255,-0.001 0.3085,0 0.56753,-0.23177 0.60166,-0.53869 l 2.08836,-18.7838301 c 0.0188,-0.17092 -0.036,-0.34211 -0.15055,-0.47043 -0.11483,-0.12832 -0.27914,-0.20161 -0.45112,-0.20161 h -3.14563 l 0.82074,-3.55521 2.90116,0.57997 c 0.33046,0.0667 0.64664,-0.14737 0.71226,-0.47466 0.0659,-0.32835 -0.14711,-0.64691 -0.4744,-0.71253 z m -5.4827,5.3731601 -0.79243,3.43218 c -0.003,0.013 0.001,0.0254 -10e-4,0.0386 -0.3749,-0.0828 -0.77019,-0.1868 -1.20225,-0.33417 -3.2543785,-1.10623 -5.1897985,-0.45403 -6.2010385,0.21457 l -0.37227,-3.35121 z m 2.03862,17.57283 h -4.27125 L 11.195251,28.64025 9.9604455,28.64248 9.377983,27.576697 H 7.4539635 c 0,0 -0.8950351,0.264474 -1.3971205,-0.07771 C 5.7236106,27.271872 5.7298827,26.534845 5.6834432,26.154335 5.6542859,25.91543 7.2083619,25.576388 7.1734114,25.287995 7.1625338,25.198239 7.1513902,25.106186 7.1399898,25.011899 7.0854358,24.560711 7.0250011,24.058369 6.9596848,23.511725 6.9210508,23.18839 7.3516361,22.824768 7.3097931,22.47185 7.2672991,22.113441 6.7523296,21.765293 6.7069557,21.37932 6.4801046,19.449611 6.2199674,17.193963 5.9536065,14.797907 c 0.27252,-0.32809 1.77482,-1.82748 5.6504385,-0.51091 1.26894,0.43206 2.33786,0.59663 3.22977,0.59663 1.18956,0 2.06216,-0.29263 2.67599,-0.63209 z m 1.95341,-17.57283 -0.28442,2.55879 c -0.0537,0.0772 -0.9271,1.25148 -3.30676,1.08902 l 0.84269,-3.64807 h 2.74849 z"
       id="path2-3"
       sodipodi:nodetypes="ccccsccssssssccccccscccccccccccccccccccssssssscsccccccccc"
       inkscape:export-xdpi="96"
       inkscape:export-ydpi="96"
       class="SmoothieAqGlass" />
    <g
       id="g4539">
      <ellipse
         inkscape:export-ydpi="96"
         inkscape:export-xdpi="96"
         transform="matrix(0.96620194,0.25778636,-0.25807462,0.96612499,0,0)"
         ry="1.4308845"
         rx="1.3693484"
         cy="20.507269"
         cx="11.298918"
         id="path5874-44"
         style="fill:none;fill-opacity:1;stroke:#cc0000;stroke-width:1;stroke-linecap:round;stroke-linejoin:round;stroke-miterlimit:4;stroke-dasharray:none;stroke-opacity:1" />
      <ellipse
         inkscape:export-ydpi="96"
         inkscape:export-xdpi="96"
         transform="matrix(0.96620194,0.25778636,-0.25807462,0.96612499,0,0)"
         ry="1.4308845"
         rx="1.3693484"
         cy="24.01651"
         cx="13.365301"
         id="path5874-4-2"
         style="fill:none;fill-opacity:1;stroke:#cc0000;stroke-width:1;stroke-linecap:round;stroke-linejoin:round;stroke-miterlimit:4;stroke-dasharray:none;stroke-opacity:1" />
      <ellipse
         inkscape:export-ydpi="96"
         inkscape:export-xdpi="96"
         transform="matrix(0.96620194,0.25778636,-0.25807462,0.96612499,0,0)"
         ry="1.4308845"
         rx="1.3693484"
         cy="24.01651"
         cx="17.291214"
         id="path5874-7-10"
         style="fill:none;fill-opacity:1;stroke:#cc0000;stroke-width:1;stroke-linecap:round;stroke-linejoin:round;stroke-miterlimit:4;stroke-dasharray:none;stroke-opacity:1" />
      <ellipse
         inkscape:export-ydpi="96"
         inkscape:export-xdpi="96"
         transform="matrix(0.96620194,0.25778636,-0.25807462,0.96612499,0,0)"
         ry="1.4308845"
         rx="1.3693484"
         cy="20.507235"
         cx="19.344397"
         id="path5874-9-79"
         style="fill:none;fill-opacity:1;stroke:#cc0000;stroke-width:1;stroke-linecap:round;stroke-linejoin:round;stroke-miterlimit:4;stroke-dasharray:none;stroke-opacity:1" />
      <ellipse
         inkscape:export-ydpi="96"
         inkscape:export-xdpi="96"
         transform="matrix(0.96620194,0.25778636,-0.25807462,0.96612499,0,0)"
         ry="1.4308845"
         rx="1.3693484"
         cy="17.021233"
         cx="17.291214"
         id="path5874-6-2"
         style="fill:none;fill-opacity:1;stroke:#cc0000;stroke-width:1;stroke-linecap:round;stroke-linejoin:round;stroke-miterlimit:4;stroke-dasharray:none;stroke-opacity:1" />
      <ellipse
         inkscape:export-ydpi="96"
         inkscape:export-xdpi="96"
         transform="matrix(0.96620194,0.25778636,-0.25807462,0.96612499,0,0)"
         ry="1.4308845"
         rx="1.3693484"
         cy="17.021233"
         cx="13.365301"
         id="path5874-76-3"
         style="fill:none;fill-opacity:1;stroke:#cc0000;stroke-width:1;stroke-linecap:round;stroke-linejoin:round;stroke-miterlimit:4;stroke-dasharray:none;stroke-opacity:1" />
      <path
         inkscape:export-ydpi="96"
         inkscape:export-xdpi="96"
         sodipodi:nodetypes="cccc"
         inkscape:connector-curvature="0"
         id="path5915-1"
         d="M 10.205305,26.391763 9.8067803,25.035637 10.949397,23.896097 C 12.249061,24.343116 9.9390322,23.551325 12.278686,24.326"
         style="fill:none;stroke:#cc0000;stroke-width:1;stroke-linecap:butt;stroke-linejoin:round;stroke-miterlimit:4;stroke-dasharray:none;stroke-opacity:1" />
      <path
         inkscape:export-ydpi="96"
         inkscape:export-xdpi="96"
         sodipodi:nodetypes="ccccc"
         inkscape:connector-curvature="0"
         id="path5956-4"
         d="m 9.0313511,20.980477 0.7773447,1.686116 -1.4962153,1.380235 -0.8818475,1.519097 v 0"
         style="fill:none;stroke:#cc0000;stroke-width:1;stroke-linecap:butt;stroke-linejoin:round;stroke-miterlimit:4;stroke-dasharray:none;stroke-opacity:1" />
    </g>
  </g>
</svg>
